# xmcd
#
# Track frame offsets:
#	150
#	17100
#	31807
#	46817
#	60495
#	75030
#	91562
#	108080
#	125720
#	141315
#	159820
#
# Disc length: 2405 seconds
# Revision: 3
# Processed by: cddbd v1.5.2PL0 Copyright (c) Steve Scherf et al.
# Submitted via: dBpowerAMP V12.0
#
DISCID=7109630b
DTITLE=Matraca Berg - Sunday Morning To Saturday Night
DYEAR=1997
DGENRE=Country
TTITLE0=Along For The Ride
TTITLE1=That Train Don't Run
TTITLE2=Back In The Saddle
TTITLE3=Here You Come Raining On Me
TTITLE4=Some People Fall, Some People Fly
TTITLE5=Back When We Were Beautiful
TTITLE6=Sunday Morning To Saturday Night
TTITLE7=Good Ol' Girl
TTITLE8=Give Me Tonight
TTITLE9=If I Were An Angel
TTITLE10=The Resurrection
EXTD=
EXTT0=
EXTT1=
EXTT2=
EXTT3=
EXTT4=
EXTT5=
EXTT6=
EXTT7=
EXTT8=
EXTT9=
EXTT10=
PLAYORDER=
